<mxfile host="app.diagrams.net" modified="2023-03-09T12:38:17.154Z" agent="5.0 (Macintosh; Intel Mac OS X 10_15_7) AppleWebKit/537.36 (KHTML, like Gecko) Chrome/110.0.0.0 Safari/537.36" version="20.6.0" etag="U7eDedp5PhVKpz5c4Ri_" type="github">
  <diagram id="wupjATQaynuKS3Yh0xWx" name="Sayfa -1">
    <mxGraphModel dx="2037" dy="2303" grid="1" gridSize="10" guides="1" tooltips="1" connect="1" arrows="1" fold="1" page="1" pageScale="1" pageWidth="827" pageHeight="1169" math="0" shadow="0">
      <root>
        <mxCell id="0" />
        <mxCell id="1" parent="0" />
        <mxCell id="yhUPi2XCXw30jilLTpxJ-73" value="" style="rounded=0;whiteSpace=wrap;html=1;align=left;" vertex="1" parent="1">
          <mxGeometry x="12" y="-320" width="108" height="730" as="geometry" />
        </mxCell>
        <mxCell id="yhUPi2XCXw30jilLTpxJ-60" value="" style="rounded=0;whiteSpace=wrap;html=1;" vertex="1" parent="1">
          <mxGeometry x="160" y="-310" width="830" height="1060" as="geometry" />
        </mxCell>
        <mxCell id="yhUPi2XCXw30jilLTpxJ-1" value="" style="strokeWidth=2;html=1;shape=mxgraph.flowchart.database;whiteSpace=wrap;" vertex="1" parent="1">
          <mxGeometry x="30" y="40" width="60" height="60" as="geometry" />
        </mxCell>
        <mxCell id="yhUPi2XCXw30jilLTpxJ-2" value="" style="strokeWidth=2;html=1;shape=mxgraph.flowchart.database;whiteSpace=wrap;" vertex="1" parent="1">
          <mxGeometry x="30" y="110" width="60" height="60" as="geometry" />
        </mxCell>
        <mxCell id="yhUPi2XCXw30jilLTpxJ-3" value="" style="strokeWidth=2;html=1;shape=mxgraph.flowchart.database;whiteSpace=wrap;" vertex="1" parent="1">
          <mxGeometry x="30" y="180" width="60" height="60" as="geometry" />
        </mxCell>
        <mxCell id="yhUPi2XCXw30jilLTpxJ-4" value="" style="strokeWidth=2;html=1;shape=mxgraph.flowchart.database;whiteSpace=wrap;" vertex="1" parent="1">
          <mxGeometry x="30" y="260" width="60" height="60" as="geometry" />
        </mxCell>
        <mxCell id="yhUPi2XCXw30jilLTpxJ-5" value="" style="strokeWidth=2;html=1;shape=mxgraph.flowchart.database;whiteSpace=wrap;" vertex="1" parent="1">
          <mxGeometry x="30" y="-116" width="60" height="60" as="geometry" />
        </mxCell>
        <mxCell id="yhUPi2XCXw30jilLTpxJ-134" style="edgeStyle=orthogonalEdgeStyle;rounded=0;orthogonalLoop=1;jettySize=auto;html=1;exitX=0;exitY=0.5;exitDx=0;exitDy=0;entryX=0.398;entryY=1.003;entryDx=0;entryDy=0;entryPerimeter=0;" edge="1" parent="1" source="yhUPi2XCXw30jilLTpxJ-8" target="yhUPi2XCXw30jilLTpxJ-147">
          <mxGeometry relative="1" as="geometry">
            <Array as="points">
              <mxPoint x="56" y="440" />
            </Array>
          </mxGeometry>
        </mxCell>
        <mxCell id="yhUPi2XCXw30jilLTpxJ-8" value="Missed Hygiene Opportunities (2)" style="whiteSpace=wrap;html=1;align=center;" vertex="1" parent="1">
          <mxGeometry x="740" y="420" width="100" height="40" as="geometry" />
        </mxCell>
        <mxCell id="yhUPi2XCXw30jilLTpxJ-9" value="Sink Event (3)" style="whiteSpace=wrap;html=1;align=center;" vertex="1" parent="1">
          <mxGeometry x="490" y="420" width="100" height="40" as="geometry" />
        </mxCell>
        <mxCell id="yhUPi2XCXw30jilLTpxJ-10" value="Soap Event(6)" style="whiteSpace=wrap;html=1;align=center;" vertex="1" parent="1">
          <mxGeometry x="620" y="420" width="100" height="40" as="geometry" />
        </mxCell>
        <mxCell id="yhUPi2XCXw30jilLTpxJ-37" style="edgeStyle=orthogonalEdgeStyle;rounded=0;orthogonalLoop=1;jettySize=auto;html=1;entryX=1;entryY=0.5;entryDx=0;entryDy=0;entryPerimeter=0;" edge="1" parent="1" source="yhUPi2XCXw30jilLTpxJ-11" target="yhUPi2XCXw30jilLTpxJ-5">
          <mxGeometry relative="1" as="geometry">
            <Array as="points">
              <mxPoint x="230" y="-86" />
              <mxPoint x="230" y="-86" />
            </Array>
          </mxGeometry>
        </mxCell>
        <mxCell id="yhUPi2XCXw30jilLTpxJ-11" value="Calculate&amp;nbsp; Reports" style="whiteSpace=wrap;html=1;align=center;" vertex="1" parent="1">
          <mxGeometry x="200" y="-146" width="100" height="80" as="geometry" />
        </mxCell>
        <mxCell id="yhUPi2XCXw30jilLTpxJ-49" style="edgeStyle=orthogonalEdgeStyle;rounded=0;orthogonalLoop=1;jettySize=auto;html=1;entryX=1;entryY=0.5;entryDx=0;entryDy=0;" edge="1" parent="1" source="yhUPi2XCXw30jilLTpxJ-12" target="yhUPi2XCXw30jilLTpxJ-11">
          <mxGeometry relative="1" as="geometry">
            <Array as="points">
              <mxPoint x="500" y="-106" />
              <mxPoint x="500" y="-106" />
            </Array>
          </mxGeometry>
        </mxCell>
        <mxCell id="yhUPi2XCXw30jilLTpxJ-50" style="edgeStyle=orthogonalEdgeStyle;rounded=0;orthogonalLoop=1;jettySize=auto;html=1;entryX=0.25;entryY=0;entryDx=0;entryDy=0;fillColor=#a20025;strokeColor=#6F0000;" edge="1" parent="1" source="yhUPi2XCXw30jilLTpxJ-12" target="yhUPi2XCXw30jilLTpxJ-7">
          <mxGeometry relative="1" as="geometry">
            <Array as="points">
              <mxPoint x="370" y="-100" />
            </Array>
          </mxGeometry>
        </mxCell>
        <mxCell id="yhUPi2XCXw30jilLTpxJ-12" value="" style="strokeColor=#dddddd;shadow=1;strokeWidth=1;rounded=1;absoluteArcSize=1;arcSize=2;" vertex="1" parent="1">
          <mxGeometry x="510" y="-128" width="180" height="44" as="geometry" />
        </mxCell>
        <mxCell id="yhUPi2XCXw30jilLTpxJ-13" value="Home Page - Charts&lt;br&gt;" style="sketch=0;dashed=0;connectable=0;html=1;fillColor=#757575;strokeColor=none;shape=mxgraph.gcp2.frontend_platform_services;part=1;labelPosition=right;verticalLabelPosition=middle;align=left;verticalAlign=middle;spacingLeft=5;fontSize=12;" vertex="1" parent="yhUPi2XCXw30jilLTpxJ-12">
          <mxGeometry y="0.5" width="32" height="32" relative="1" as="geometry">
            <mxPoint x="5" y="-16" as="offset" />
          </mxGeometry>
        </mxCell>
        <mxCell id="yhUPi2XCXw30jilLTpxJ-43" style="edgeStyle=orthogonalEdgeStyle;rounded=0;orthogonalLoop=1;jettySize=auto;html=1;exitX=0.5;exitY=1;exitDx=0;exitDy=0;" edge="1" parent="1" source="yhUPi2XCXw30jilLTpxJ-17">
          <mxGeometry relative="1" as="geometry">
            <mxPoint x="550" y="223" as="sourcePoint" />
            <mxPoint x="550" y="420" as="targetPoint" />
            <Array as="points">
              <mxPoint x="600" y="223" />
              <mxPoint x="550" y="223" />
            </Array>
          </mxGeometry>
        </mxCell>
        <mxCell id="yhUPi2XCXw30jilLTpxJ-44" style="edgeStyle=orthogonalEdgeStyle;rounded=0;orthogonalLoop=1;jettySize=auto;html=1;entryX=0.5;entryY=0;entryDx=0;entryDy=0;" edge="1" parent="1" source="yhUPi2XCXw30jilLTpxJ-17" target="yhUPi2XCXw30jilLTpxJ-7">
          <mxGeometry relative="1" as="geometry">
            <Array as="points">
              <mxPoint x="530" y="200" />
              <mxPoint x="400" y="200" />
            </Array>
          </mxGeometry>
        </mxCell>
        <mxCell id="yhUPi2XCXw30jilLTpxJ-45" style="edgeStyle=orthogonalEdgeStyle;rounded=0;orthogonalLoop=1;jettySize=auto;html=1;entryX=0.5;entryY=0;entryDx=0;entryDy=0;exitX=1;exitY=0.5;exitDx=0;exitDy=0;" edge="1" parent="1" source="yhUPi2XCXw30jilLTpxJ-17" target="yhUPi2XCXw30jilLTpxJ-8">
          <mxGeometry relative="1" as="geometry">
            <Array as="points">
              <mxPoint x="790" y="42" />
            </Array>
          </mxGeometry>
        </mxCell>
        <mxCell id="yhUPi2XCXw30jilLTpxJ-46" style="edgeStyle=orthogonalEdgeStyle;rounded=0;orthogonalLoop=1;jettySize=auto;html=1;entryX=0.5;entryY=0;entryDx=0;entryDy=0;exitX=0;exitY=0.5;exitDx=0;exitDy=0;" edge="1" parent="1" source="yhUPi2XCXw30jilLTpxJ-17" target="yhUPi2XCXw30jilLTpxJ-6">
          <mxGeometry relative="1" as="geometry">
            <Array as="points">
              <mxPoint x="510" y="40" />
              <mxPoint x="270" y="40" />
            </Array>
          </mxGeometry>
        </mxCell>
        <mxCell id="yhUPi2XCXw30jilLTpxJ-96" style="edgeStyle=orthogonalEdgeStyle;rounded=0;orthogonalLoop=1;jettySize=auto;html=1;entryX=0.25;entryY=0;entryDx=0;entryDy=0;" edge="1" parent="1" source="yhUPi2XCXw30jilLTpxJ-17" target="yhUPi2XCXw30jilLTpxJ-10">
          <mxGeometry relative="1" as="geometry">
            <Array as="points">
              <mxPoint x="645" y="350" />
              <mxPoint x="645" y="350" />
            </Array>
          </mxGeometry>
        </mxCell>
        <mxCell id="yhUPi2XCXw30jilLTpxJ-17" value="" style="strokeColor=#dddddd;shadow=1;strokeWidth=1;rounded=1;absoluteArcSize=1;arcSize=2;" vertex="1" parent="1">
          <mxGeometry x="510" y="20" width="180" height="44" as="geometry" />
        </mxCell>
        <mxCell id="yhUPi2XCXw30jilLTpxJ-18" value="All Logs Events" style="sketch=0;dashed=0;connectable=0;html=1;fillColor=#757575;strokeColor=none;shape=mxgraph.gcp2.frontend_platform_services;part=1;labelPosition=right;verticalLabelPosition=middle;align=left;verticalAlign=middle;spacingLeft=5;fontSize=12;" vertex="1" parent="yhUPi2XCXw30jilLTpxJ-17">
          <mxGeometry y="0.5" width="32" height="32" relative="1" as="geometry">
            <mxPoint x="5" y="-16" as="offset" />
          </mxGeometry>
        </mxCell>
        <mxCell id="yhUPi2XCXw30jilLTpxJ-48" style="edgeStyle=orthogonalEdgeStyle;rounded=0;orthogonalLoop=1;jettySize=auto;html=1;entryX=0.5;entryY=1;entryDx=0;entryDy=0;" edge="1" parent="1" source="yhUPi2XCXw30jilLTpxJ-19" target="yhUPi2XCXw30jilLTpxJ-11">
          <mxGeometry relative="1" as="geometry">
            <mxPoint x="260" y="-62" as="targetPoint" />
            <Array as="points">
              <mxPoint x="250" y="-44" />
            </Array>
          </mxGeometry>
        </mxCell>
        <mxCell id="yhUPi2XCXw30jilLTpxJ-19" value="" style="strokeColor=#dddddd;shadow=1;strokeWidth=1;rounded=1;absoluteArcSize=1;arcSize=2;" vertex="1" parent="1">
          <mxGeometry x="510" y="-66" width="180" height="44" as="geometry" />
        </mxCell>
        <mxCell id="yhUPi2XCXw30jilLTpxJ-20" value="Employee Reports" style="sketch=0;dashed=0;connectable=0;html=1;fillColor=#757575;strokeColor=none;shape=mxgraph.gcp2.frontend_platform_services;part=1;labelPosition=right;verticalLabelPosition=middle;align=left;verticalAlign=middle;spacingLeft=5;fontSize=12;" vertex="1" parent="yhUPi2XCXw30jilLTpxJ-19">
          <mxGeometry y="0.5" width="32" height="32" relative="1" as="geometry">
            <mxPoint x="5" y="-16" as="offset" />
          </mxGeometry>
        </mxCell>
        <mxCell id="yhUPi2XCXw30jilLTpxJ-30" style="edgeStyle=orthogonalEdgeStyle;rounded=0;orthogonalLoop=1;jettySize=auto;html=1;" edge="1" parent="1" source="yhUPi2XCXw30jilLTpxJ-21" target="yhUPi2XCXw30jilLTpxJ-11">
          <mxGeometry relative="1" as="geometry">
            <Array as="points">
              <mxPoint x="250" y="-176" />
            </Array>
          </mxGeometry>
        </mxCell>
        <mxCell id="yhUPi2XCXw30jilLTpxJ-21" value="" style="strokeColor=#dddddd;shadow=1;strokeWidth=1;rounded=1;absoluteArcSize=1;arcSize=2;" vertex="1" parent="1">
          <mxGeometry x="510" y="-190" width="180" height="44" as="geometry" />
        </mxCell>
        <mxCell id="yhUPi2XCXw30jilLTpxJ-22" value="Hygyn Station Reports" style="sketch=0;dashed=0;connectable=0;html=1;fillColor=#757575;strokeColor=none;shape=mxgraph.gcp2.frontend_platform_services;part=1;labelPosition=right;verticalLabelPosition=middle;align=left;verticalAlign=middle;spacingLeft=5;fontSize=12;" vertex="1" parent="yhUPi2XCXw30jilLTpxJ-21">
          <mxGeometry y="0.5" width="32" height="32" relative="1" as="geometry">
            <mxPoint x="5" y="-16" as="offset" />
          </mxGeometry>
        </mxCell>
        <mxCell id="yhUPi2XCXw30jilLTpxJ-144" style="edgeStyle=orthogonalEdgeStyle;rounded=0;orthogonalLoop=1;jettySize=auto;html=1;entryX=0.25;entryY=1;entryDx=0;entryDy=0;exitX=1.033;exitY=0.908;exitDx=0;exitDy=0;exitPerimeter=0;" edge="1" parent="1" source="yhUPi2XCXw30jilLTpxJ-147" target="yhUPi2XCXw30jilLTpxJ-11">
          <mxGeometry relative="1" as="geometry">
            <mxPoint x="120" y="360" as="sourcePoint" />
          </mxGeometry>
        </mxCell>
        <mxCell id="yhUPi2XCXw30jilLTpxJ-35" value="" style="strokeWidth=2;html=1;shape=mxgraph.flowchart.database;whiteSpace=wrap;" vertex="1" parent="1">
          <mxGeometry x="30" y="330" width="60" height="60" as="geometry" />
        </mxCell>
        <mxCell id="yhUPi2XCXw30jilLTpxJ-53" value="" style="aspect=fixed;html=1;points=[];align=center;image;fontSize=12;image=img/lib/azure2/app_services/App_Service_Environments.svg;" vertex="1" parent="1">
          <mxGeometry x="930" y="-280" width="44" height="44" as="geometry" />
        </mxCell>
        <mxCell id="yhUPi2XCXw30jilLTpxJ-58" value="" style="verticalLabelPosition=bottom;html=1;verticalAlign=top;align=center;strokeColor=none;fillColor=#00BEF2;shape=mxgraph.azure.database;" vertex="1" parent="1">
          <mxGeometry x="20" y="-310" width="18.75" height="30" as="geometry" />
        </mxCell>
        <mxCell id="yhUPi2XCXw30jilLTpxJ-69" style="edgeStyle=orthogonalEdgeStyle;rounded=0;orthogonalLoop=1;jettySize=auto;html=1;entryX=0;entryY=0.5;entryDx=0;entryDy=0;" edge="1" parent="1" source="yhUPi2XCXw30jilLTpxJ-59" target="yhUPi2XCXw30jilLTpxJ-68">
          <mxGeometry relative="1" as="geometry" />
        </mxCell>
        <mxCell id="yhUPi2XCXw30jilLTpxJ-59" value="&lt;br&gt;Devices&lt;br&gt;" style="outlineConnect=0;dashed=0;verticalLabelPosition=bottom;verticalAlign=top;align=center;html=1;shape=mxgraph.aws3.hardware_board;fillColor=#5294CF;gradientColor=none;" vertex="1" parent="1">
          <mxGeometry x="20" y="750" width="84" height="100.5" as="geometry" />
        </mxCell>
        <mxCell id="yhUPi2XCXw30jilLTpxJ-111" style="edgeStyle=orthogonalEdgeStyle;rounded=0;orthogonalLoop=1;jettySize=auto;html=1;exitX=0;exitY=0;exitDx=0;exitDy=75;exitPerimeter=0;entryX=0.5;entryY=1;entryDx=0;entryDy=0;" edge="1" parent="1" source="yhUPi2XCXw30jilLTpxJ-61" target="yhUPi2XCXw30jilLTpxJ-6">
          <mxGeometry relative="1" as="geometry" />
        </mxCell>
        <mxCell id="yhUPi2XCXw30jilLTpxJ-61" value="&lt;pre style=&quot;background-color:#262626;color:#d0d0d0;font-family:&#39;Menlo-Regular&#39;,monospace;font-size:9.0pt;&quot;&gt;&lt;span style=&quot;color:#66c3cc;&quot;&gt;_kitchenEntry&lt;/span&gt;&lt;span style=&quot;color:#bdbdbd;&quot;&gt;.&lt;/span&gt;&lt;span style=&quot;color:#39cc8f;&quot;&gt;Create&lt;/span&gt;&lt;/pre&gt;" style="verticalAlign=top;align=left;spacingTop=8;spacingLeft=2;spacingRight=12;shape=cube;size=10;direction=south;fontStyle=4;html=1;" vertex="1" parent="1">
          <mxGeometry x="180" y="524" width="160" height="60" as="geometry" />
        </mxCell>
        <mxCell id="yhUPi2XCXw30jilLTpxJ-113" style="edgeStyle=orthogonalEdgeStyle;rounded=0;orthogonalLoop=1;jettySize=auto;html=1;exitX=0;exitY=0;exitDx=0;exitDy=65;exitPerimeter=0;entryX=0.5;entryY=1;entryDx=0;entryDy=0;" edge="1" parent="1" source="yhUPi2XCXw30jilLTpxJ-63" target="yhUPi2XCXw30jilLTpxJ-9">
          <mxGeometry relative="1" as="geometry" />
        </mxCell>
        <mxCell id="yhUPi2XCXw30jilLTpxJ-63" value="&lt;pre style=&quot;background-color:#262626;color:#d0d0d0;font-family:&#39;Menlo-Regular&#39;,monospace;font-size:9.0pt;&quot;&gt;&lt;pre style=&quot;font-family: Menlo-Regular, monospace; font-size: 9pt;&quot;&gt;&lt;span style=&quot;color:#66c3cc;&quot;&gt;_sinkEvent&lt;/span&gt;&lt;span style=&quot;color:#bdbdbd;&quot;&gt;.&lt;/span&gt;&lt;span style=&quot;color:#39cc8f;&quot;&gt;Create&lt;/span&gt;&lt;/pre&gt;&lt;/pre&gt;" style="verticalAlign=top;align=left;spacingTop=8;spacingLeft=2;spacingRight=12;shape=cube;size=10;direction=south;fontStyle=4;html=1;" vertex="1" parent="1">
          <mxGeometry x="520" y="524" width="140" height="60" as="geometry" />
        </mxCell>
        <mxCell id="yhUPi2XCXw30jilLTpxJ-112" style="edgeStyle=orthogonalEdgeStyle;rounded=0;orthogonalLoop=1;jettySize=auto;html=1;exitX=0;exitY=0;exitDx=0;exitDy=75;exitPerimeter=0;entryX=0.5;entryY=1;entryDx=0;entryDy=0;" edge="1" parent="1" source="yhUPi2XCXw30jilLTpxJ-64" target="yhUPi2XCXw30jilLTpxJ-7">
          <mxGeometry relative="1" as="geometry" />
        </mxCell>
        <mxCell id="yhUPi2XCXw30jilLTpxJ-64" value="&lt;pre style=&quot;background-color:#262626;color:#d0d0d0;font-family:&#39;Menlo-Regular&#39;,monospace;font-size:9.0pt;&quot;&gt;&lt;pre style=&quot;font-family: Menlo-Regular, monospace; font-size: 9pt;&quot;&gt;&lt;span style=&quot;color:#66c3cc;&quot;&gt;_kitchenExit&lt;/span&gt;&lt;span style=&quot;color:#bdbdbd;&quot;&gt;.&lt;/span&gt;&lt;span style=&quot;color:#39cc8f;&quot;&gt;Create&lt;/span&gt;&lt;/pre&gt;&lt;/pre&gt;" style="verticalAlign=top;align=left;spacingTop=8;spacingLeft=2;spacingRight=12;shape=cube;size=10;direction=south;fontStyle=4;html=1;" vertex="1" parent="1">
          <mxGeometry x="350" y="524" width="160" height="60" as="geometry" />
        </mxCell>
        <mxCell id="yhUPi2XCXw30jilLTpxJ-114" style="edgeStyle=orthogonalEdgeStyle;rounded=0;orthogonalLoop=1;jettySize=auto;html=1;exitX=0;exitY=0;exitDx=0;exitDy=66.5;exitPerimeter=0;" edge="1" parent="1" source="yhUPi2XCXw30jilLTpxJ-65" target="yhUPi2XCXw30jilLTpxJ-10">
          <mxGeometry relative="1" as="geometry" />
        </mxCell>
        <mxCell id="yhUPi2XCXw30jilLTpxJ-65" value="&lt;pre style=&quot;background-color:#262626;color:#d0d0d0;font-family:&#39;Menlo-Regular&#39;,monospace;font-size:9.0pt;&quot;&gt;&lt;pre style=&quot;font-family: Menlo-Regular, monospace; font-size: 9pt;&quot;&gt;&lt;span style=&quot;color:#66c3cc;&quot;&gt;_soapEvent&lt;/span&gt;&lt;span style=&quot;color:#bdbdbd;&quot;&gt;.&lt;/span&gt;&lt;span style=&quot;color:#39cc8f;&quot;&gt;Create&lt;/span&gt;&lt;/pre&gt;&lt;/pre&gt;" style="verticalAlign=top;align=left;spacingTop=8;spacingLeft=2;spacingRight=12;shape=cube;size=10;direction=south;fontStyle=4;html=1;" vertex="1" parent="1">
          <mxGeometry x="680" y="524" width="143" height="60" as="geometry" />
        </mxCell>
        <mxCell id="yhUPi2XCXw30jilLTpxJ-70" style="edgeStyle=orthogonalEdgeStyle;rounded=0;orthogonalLoop=1;jettySize=auto;html=1;" edge="1" parent="1" source="yhUPi2XCXw30jilLTpxJ-68" target="yhUPi2XCXw30jilLTpxJ-61">
          <mxGeometry relative="1" as="geometry" />
        </mxCell>
        <mxCell id="yhUPi2XCXw30jilLTpxJ-75" style="edgeStyle=orthogonalEdgeStyle;rounded=0;orthogonalLoop=1;jettySize=auto;html=1;" edge="1" parent="1" source="yhUPi2XCXw30jilLTpxJ-68" target="yhUPi2XCXw30jilLTpxJ-63">
          <mxGeometry relative="1" as="geometry" />
        </mxCell>
        <mxCell id="yhUPi2XCXw30jilLTpxJ-76" style="edgeStyle=orthogonalEdgeStyle;rounded=0;orthogonalLoop=1;jettySize=auto;html=1;entryX=0;entryY=0;entryDx=60;entryDy=85;entryPerimeter=0;" edge="1" parent="1" source="yhUPi2XCXw30jilLTpxJ-68" target="yhUPi2XCXw30jilLTpxJ-64">
          <mxGeometry relative="1" as="geometry" />
        </mxCell>
        <mxCell id="yhUPi2XCXw30jilLTpxJ-77" style="edgeStyle=orthogonalEdgeStyle;rounded=0;orthogonalLoop=1;jettySize=auto;html=1;" edge="1" parent="1" source="yhUPi2XCXw30jilLTpxJ-68" target="yhUPi2XCXw30jilLTpxJ-65">
          <mxGeometry relative="1" as="geometry" />
        </mxCell>
        <mxCell id="yhUPi2XCXw30jilLTpxJ-68" value="&lt;b&gt;Thinks Board&lt;/b&gt;&lt;br&gt;Event Types: 1, 3, 5, 6" style="rounded=0;whiteSpace=wrap;html=1;" vertex="1" parent="1">
          <mxGeometry x="200" y="770.25" width="580" height="60" as="geometry" />
        </mxCell>
        <mxCell id="yhUPi2XCXw30jilLTpxJ-115" style="edgeStyle=orthogonalEdgeStyle;rounded=0;orthogonalLoop=1;jettySize=auto;html=1;exitX=0.5;exitY=1;exitDx=0;exitDy=0;entryX=1;entryY=0.5;entryDx=0;entryDy=0;" edge="1" parent="1" source="yhUPi2XCXw30jilLTpxJ-84" target="yhUPi2XCXw30jilLTpxJ-8">
          <mxGeometry relative="1" as="geometry" />
        </mxCell>
        <mxCell id="yhUPi2XCXw30jilLTpxJ-82" value="HangFire Job 2" style="swimlane;startSize=0;" vertex="1" parent="1">
          <mxGeometry x="730" y="-140" width="110" height="90" as="geometry">
            <mxRectangle x="510" y="250" width="50" height="40" as="alternateBounds" />
          </mxGeometry>
        </mxCell>
        <mxCell id="yhUPi2XCXw30jilLTpxJ-81" value="" style="verticalLabelPosition=bottom;html=1;verticalAlign=top;align=center;strokeColor=none;fillColor=#00BEF2;shape=mxgraph.azure.scheduler;pointerEvents=1;" vertex="1" parent="yhUPi2XCXw30jilLTpxJ-82">
          <mxGeometry x="85" y="60" width="25" height="30" as="geometry" />
        </mxCell>
        <mxCell id="yhUPi2XCXw30jilLTpxJ-84" value="HangFire Job 1" style="swimlane;startSize=0;" vertex="1" parent="1">
          <mxGeometry x="860" y="-140" width="110" height="90" as="geometry">
            <mxRectangle x="510" y="250" width="50" height="40" as="alternateBounds" />
          </mxGeometry>
        </mxCell>
        <mxCell id="yhUPi2XCXw30jilLTpxJ-85" value="" style="verticalLabelPosition=bottom;html=1;verticalAlign=top;align=center;strokeColor=none;fillColor=#00BEF2;shape=mxgraph.azure.scheduler;pointerEvents=1;" vertex="1" parent="yhUPi2XCXw30jilLTpxJ-84">
          <mxGeometry x="79" y="60" width="25" height="25" as="geometry" />
        </mxCell>
        <mxCell id="yhUPi2XCXw30jilLTpxJ-7" value="Kitchen Exit (5)" style="whiteSpace=wrap;html=1;align=center;" vertex="1" parent="1">
          <mxGeometry x="340" y="420" width="120" height="40" as="geometry" />
        </mxCell>
        <mxCell id="yhUPi2XCXw30jilLTpxJ-6" value="Kitchen Entry (1)" style="whiteSpace=wrap;html=1;align=center;" vertex="1" parent="1">
          <mxGeometry x="220" y="420" width="100" height="40" as="geometry" />
        </mxCell>
        <mxCell id="yhUPi2XCXw30jilLTpxJ-135" value="&lt;pre style=&quot;background-color:#262626;color:#d0d0d0;font-family:&#39;Menlo-Regular&#39;,monospace;font-size:9.0pt;&quot;&gt;&lt;span style=&quot;color:#e1bfff;&quot;&gt;@&lt;/span&gt;&lt;span style=&quot;color:#6c95eb;&quot;&gt;if &lt;/span&gt;&lt;span style=&quot;color:#bdbdbd;&quot;&gt;(report.&lt;/span&gt;&lt;span style=&quot;color:#66c3cc;&quot;&gt;EventType &lt;/span&gt;&lt;span style=&quot;color:#bdbdbd;&quot;&gt;== &lt;/span&gt;&lt;span style=&quot;color:#c9a26d;&quot;&gt;&quot;1&quot;&lt;/span&gt;&lt;span style=&quot;color:#bdbdbd;&quot;&gt;)&lt;br&gt;&lt;/span&gt;&lt;span style=&quot;color:#e1bfff;&quot;&gt;{&lt;br&gt;&lt;/span&gt;&lt;span style=&quot;color:#e1bfff;&quot;&gt;    @&lt;/span&gt;&lt;span style=&quot;color:#66c3cc;&quot;&gt;Html&lt;/span&gt;&lt;span style=&quot;color:#bdbdbd;&quot;&gt;.&lt;/span&gt;&lt;span style=&quot;color:#39cc8f;&quot;&gt;Raw&lt;/span&gt;&lt;span style=&quot;color:#bdbdbd;&quot;&gt;(&lt;/span&gt;&lt;span style=&quot;color:#c9a26d;&quot;&gt;&quot;Hijyen Bölgesi Giriş Kontrolü&quot;&lt;/span&gt;&lt;span style=&quot;color:#bdbdbd;&quot;&gt;)&lt;br&gt;&lt;/span&gt;&lt;span style=&quot;color:#e1bfff;&quot;&gt;}&lt;br&gt;&lt;/span&gt;&lt;span style=&quot;color:#6c95eb;background-color:#303030;&quot;&gt;else if &lt;/span&gt;&lt;span style=&quot;color:#bdbdbd;background-color:#303030;&quot;&gt;(&lt;/span&gt;&lt;span style=&quot;background-color:#303030;&quot;&gt;report&lt;/span&gt;&lt;span style=&quot;color:#bdbdbd;background-color:#303030;&quot;&gt;.&lt;/span&gt;&lt;span style=&quot;background-color:#303030;&quot;&gt;EventType &lt;/span&gt;&lt;span style=&quot;color:#bdbdbd;background-color:#303030;&quot;&gt;== &lt;/span&gt;&lt;span style=&quot;color:#c9a26d;background-color:#303030;&quot;&gt;&quot;2&quot;&lt;/span&gt;&lt;span style=&quot;color:#bdbdbd;background-color:#303030;&quot;&gt;)&lt;/span&gt;&lt;span style=&quot;color:#bdbdbd;&quot;&gt;&lt;br&gt;&lt;/span&gt;&lt;span style=&quot;color:#e1bfff;&quot;&gt;{&lt;br&gt;&lt;/span&gt;&lt;span style=&quot;color:#e1bfff;&quot;&gt;    @&lt;/span&gt;&lt;span style=&quot;color:#66c3cc;&quot;&gt;Html&lt;/span&gt;&lt;span style=&quot;color:#bdbdbd;&quot;&gt;.&lt;/span&gt;&lt;span style=&quot;color:#39cc8f;&quot;&gt;Raw&lt;/span&gt;&lt;span style=&quot;color:#bdbdbd;&quot;&gt;(&lt;/span&gt;&lt;span style=&quot;color:#c9a26d;&quot;&gt;&quot;Kaçan El Hijyeni Fırsatı&quot;&lt;/span&gt;&lt;span style=&quot;color:#bdbdbd;&quot;&gt;)&lt;br&gt;&lt;/span&gt;&lt;span style=&quot;color:#e1bfff;&quot;&gt;}&lt;br&gt;&lt;/span&gt;&lt;span style=&quot;color:#6c95eb;background-color:#303030;&quot;&gt;else if &lt;/span&gt;&lt;span style=&quot;color:#bdbdbd;background-color:#303030;&quot;&gt;(&lt;/span&gt;&lt;span style=&quot;background-color:#303030;&quot;&gt;report&lt;/span&gt;&lt;span style=&quot;color:#bdbdbd;background-color:#303030;&quot;&gt;.&lt;/span&gt;&lt;span style=&quot;background-color:#303030;&quot;&gt;EventType &lt;/span&gt;&lt;span style=&quot;color:#bdbdbd;background-color:#303030;&quot;&gt;== &lt;/span&gt;&lt;span style=&quot;color:#c9a26d;background-color:#303030;&quot;&gt;&quot;3&quot;&lt;/span&gt;&lt;span style=&quot;color:#bdbdbd;background-color:#303030;&quot;&gt;)&lt;/span&gt;&lt;span style=&quot;color:#bdbdbd;&quot;&gt;&lt;br&gt;&lt;/span&gt;&lt;span style=&quot;color:#e1bfff;&quot;&gt;{&lt;br&gt;&lt;/span&gt;&lt;span style=&quot;color:#e1bfff;&quot;&gt;    @&lt;/span&gt;&lt;span style=&quot;color:#66c3cc;&quot;&gt;Html&lt;/span&gt;&lt;span style=&quot;color:#bdbdbd;&quot;&gt;.&lt;/span&gt;&lt;span style=&quot;color:#39cc8f;&quot;&gt;Raw&lt;/span&gt;&lt;span style=&quot;color:#bdbdbd;&quot;&gt;(&lt;/span&gt;&lt;span style=&quot;color:#c9a26d;&quot;&gt;&quot;El Hijyeni Aktivitesi&quot;&lt;/span&gt;&lt;span style=&quot;color:#bdbdbd;&quot;&gt;)&lt;br&gt;&lt;/span&gt;&lt;span style=&quot;color:#e1bfff;&quot;&gt;}&lt;br&gt;&lt;/span&gt;&lt;span style=&quot;color:#6c95eb;background-color:#303030;&quot;&gt;else if &lt;/span&gt;&lt;span style=&quot;color:#bdbdbd;background-color:#303030;&quot;&gt;(&lt;/span&gt;&lt;span style=&quot;background-color:#303030;&quot;&gt;report&lt;/span&gt;&lt;span style=&quot;color:#bdbdbd;background-color:#303030;&quot;&gt;.&lt;/span&gt;&lt;span style=&quot;background-color:#303030;&quot;&gt;EventType &lt;/span&gt;&lt;span style=&quot;color:#bdbdbd;background-color:#303030;&quot;&gt;== &lt;/span&gt;&lt;span style=&quot;color:#c9a26d;background-color:#303030;&quot;&gt;&quot;5&quot;&lt;/span&gt;&lt;span style=&quot;color:#bdbdbd;background-color:#303030;&quot;&gt;)&lt;/span&gt;&lt;span style=&quot;color:#bdbdbd;&quot;&gt;&lt;br&gt;&lt;/span&gt;&lt;span style=&quot;color:#e1bfff;&quot;&gt;{&lt;br&gt;&lt;/span&gt;&lt;span style=&quot;color:#e1bfff;&quot;&gt;    @&lt;/span&gt;&lt;span style=&quot;color:#66c3cc;&quot;&gt;Html&lt;/span&gt;&lt;span style=&quot;color:#bdbdbd;&quot;&gt;.&lt;/span&gt;&lt;span style=&quot;color:#39cc8f;&quot;&gt;Raw&lt;/span&gt;&lt;span style=&quot;color:#bdbdbd;&quot;&gt;(&lt;/span&gt;&lt;span style=&quot;color:#c9a26d;&quot;&gt;&quot;Hijyen Bölgesi Çıkış&quot;&lt;/span&gt;&lt;span style=&quot;color:#bdbdbd;&quot;&gt;)&lt;br&gt;&lt;/span&gt;&lt;span style=&quot;color:#e1bfff;&quot;&gt;}&lt;br&gt;&lt;/span&gt;&lt;span style=&quot;color:#6c95eb;background-color:#303030;&quot;&gt;else&lt;/span&gt;&lt;span style=&quot;color:#6c95eb;&quot;&gt;&lt;br&gt;&lt;/span&gt;&lt;span style=&quot;color:#e1bfff;&quot;&gt;{&lt;br&gt;&lt;/span&gt;&lt;span style=&quot;color:#e1bfff;&quot;&gt;    @&lt;/span&gt;&lt;span style=&quot;color:#66c3cc;&quot;&gt;Html&lt;/span&gt;&lt;span style=&quot;color:#bdbdbd;&quot;&gt;.&lt;/span&gt;&lt;span style=&quot;color:#39cc8f;&quot;&gt;Raw&lt;/span&gt;&lt;span style=&quot;color:#bdbdbd;&quot;&gt;(&lt;/span&gt;&lt;span style=&quot;color:#c9a26d;&quot;&gt;&quot;Sabun Kullanımı&quot;&lt;/span&gt;&lt;span style=&quot;color:#bdbdbd;&quot;&gt;)&lt;br&gt;&lt;/span&gt;&lt;span style=&quot;color:#e1bfff;&quot;&gt;}&lt;/span&gt;&lt;/pre&gt;" style="text;whiteSpace=wrap;html=1;" vertex="1" parent="1">
          <mxGeometry x="1020" y="810" width="560" height="350" as="geometry" />
        </mxCell>
        <mxCell id="yhUPi2XCXw30jilLTpxJ-147" value="" style="swimlane;startSize=0;" vertex="1" parent="1">
          <mxGeometry x="20" y="-30" width="90" height="430" as="geometry" />
        </mxCell>
        <mxCell id="yhUPi2XCXw30jilLTpxJ-150" value="&lt;span style=&quot;&quot;&gt;Device Log &lt;br&gt;Databases&lt;/span&gt;" style="text;html=1;align=center;verticalAlign=middle;resizable=0;points=[];autosize=1;strokeColor=none;fillColor=none;fontStyle=1" vertex="1" parent="1">
          <mxGeometry x="20" y="-20" width="90" height="40" as="geometry" />
        </mxCell>
      </root>
    </mxGraphModel>
  </diagram>
</mxfile>
